:version 1.10
:name ASF
:units
  mass 1
  length 1
  angle deg
:documentation
  ASF file generated by Kaydara
:root
  axis xyz
  order  tx ty tz rx ry rz
  position 0 0 0
  orientation 0 0 0
:bonedata
  begin
    id 1
    name RightUpLegDummy
    direction -0.718183 -0.695806 0.00816078
    length 4.904
    axis 0 0 0 xyz
  end
  begin
    id 2
    name RightUpLeg
    direction 3.53373e-006 -0.995788 0.0916898
    length 17.4976
    axis -3.49089 -0.000906625 0.000286804 xyz
    dof rx ry rz
  end
  begin
    id 3
    name RightLeg
    direction 0.00371092 -0.995096 -0.0988419
    length 16.5821
    axis 3.68512 0.0193738 -0.131023 xyz
    dof rx ry rz
  end
  begin
    id 4
    name RightFoot
    direction 0.00079151 -0.46099 0.887405
    length 3.77069
    axis 4.81691e-005 -0.120479 -0.188788 xyz
    dof rx ry rz
  end
  begin
    id 5
    name RightToes
    direction 0.00124746 -0.014064 0.9999
    length 3.85082
    axis 0.000481921 0.542163 -0.142578 xyz
    dof rx ry rz
  end
  begin
    id 6
    name SpineDummy
    direction 8.3039e-015 1 4.57515e-016
    length 4.6813
    axis 0 0 0 xyz
  end
  begin
    id 7
    name Spine
    direction -3.15643e-008 0.999988 0.00495137
    length 10.1015
    axis -0.001389 0.000121418 2.40972e-006 xyz
    dof rx ry rz
  end
  begin
    id 8
    name Spine1
    direction 0 0 0
    length 0
    axis -0.001389 0.000121451 1.30017e-006 xyz
    dof rx ry rz
  end
  begin
    id 9
    name HEadDummy
    direction -1.99912e-008 0.999999 0.00127422
    length 3.43865
    axis -0.001389 0.000121451 1.30017e-006 xyz
  end
  begin
    id 10
    name HEad
    direction -0.0222688 0.980941 0.193023
    length 5.12695
    axis -0.001389 0.000121451 1.30017e-006 xyz
    dof rx ry rz
  end
  begin
    id 11
    name LeftShoulder1Dummy
    direction 0.998891 -0.0402509 -0.0244456
    length 3.5433
    axis -0.001389 0.000121451 1.30017e-006 xyz
  end
  begin
    id 12
    name LeftShoulder1
    direction 0.99951 -0.000327763 0.0313091
    length 4.05031
    axis -0.001389 0.000121451 1.30017e-006 xyz
    dof rx ry rz
  end
  begin
    id 13
    name LeftArm
    direction 0.998561 -0.00100056 -0.0536182
    length 10.3537
    axis -23.1894 0.134784 0.967509 xyz
    dof rx ry rz
  end
  begin
    id 14
    name LeftForeArm
    direction 0.998903 0.00866432 0.046012
    length 8.70632
    axis -9.91835 -0.06569 -0.177794 xyz
    dof rx ry rz
  end
  begin
    id 15
    name LeftHand
    direction 0.992938 -0.0411637 0.11126
    length 5.32135
    axis -0.00960232 -0.00340091 0.185173 xyz
    dof rx ry rz
  end
  begin
    id 16
    name RightShoulderDummy
    direction -0.998891 -0.0402509 -0.0244414
    length 3.5433
    axis -0.001389 0.000121451 1.30017e-006 xyz
  end
  begin
    id 17
    name RightShoulder
    direction -0.99951 -0.000327807 0.0313133
    length 4.05031
    axis 0.215806 0.000203643 -0.0068026 xyz
    dof rx ry rz
  end
  begin
    id 18
    name RightArm
    direction -0.998573 -0.000999564 -0.053403
    length 10.3947
    axis -23.2009 -0.134239 -0.964101 xyz
    dof rx ry rz
  end
  begin
    id 19
    name RightForeArm
    direction -0.998898 0.00868028 0.0461306
    length 8.68355
    axis -9.92322 0.0658061 0.178868 xyz
    dof rx ry rz
  end
  begin
    id 20
    name RightHand
    direction -0.992843 -0.0414603 0.112003
    length 5.28593
    axis -0.00960638 0.00330671 -0.185228 xyz
    dof rx ry rz
  end
  begin
    id 21
    name LeftUpLegDummy
    direction 0.718183 -0.695806 0.00816078
    length 4.904
    axis 0 0 0 xyz
  end
  begin
    id 22
    name LeftUpLeg
    direction -6.81752e-006 -0.995793 0.0916337
    length 17.4976
    axis -3.48766 0.00143442 -0.000524262 xyz
    dof rx ry rz
  end
  begin
    id 23
    name LeftLeg
    direction -0.00601358 -0.995091 -0.0987824
    length 16.5821
    axis 3.68178 -0.00654042 -0.000285133 xyz
    dof rx ry rz
  end
  begin
    id 24
    name LeftFoot
    direction -0.00417578 -0.460984 0.887399
    length 3.77069
    axis 1.87233e-006 4.66016e-005 -8.6538e-006 xyz
    dof rx ry rz
  end
  begin
    id 25
    name LeftToes
    direction 0.00818058 -0.00485161 0.999955
    length 3.85048
    axis 1.06247e-005 4.65869e-005 -8.65513e-006 xyz
    dof rx ry rz
  end
:hierarchy
  begin
    root RightUpLegDummy SpineDummy LeftUpLegDummy
    RightUpLegDummy RightUpLeg
    RightUpLeg RightLeg
    RightLeg RightFoot
    RightFoot RightToes
    SpineDummy Spine
    Spine Spine1
    Spine1 HEadDummy LeftShoulder1Dummy RightShoulderDummy
    HEadDummy HEad
    LeftShoulder1Dummy LeftShoulder1
    LeftShoulder1 LeftArm
    LeftArm LeftForeArm
    LeftForeArm LeftHand
    RightShoulderDummy RightShoulder
    RightShoulder RightArm
    RightArm RightForeArm
    RightForeArm RightHand
    LeftUpLegDummy LeftUpLeg
    LeftUpLeg LeftLeg
    LeftLeg LeftFoot
    LeftFoot LeftToes
  end

:SAMPLES-PER-SECOND 30
:FRAME-RANGE 1-3358
:FULLY-SPECIFIED
:DEGREES
1
root  62.8594 40.2311 36.1822 -178.552 -33.2835 179.557
RightUpLeg  4.09822 -5.22792 -2.91945
RightLeg  -1.31501 -13.9385 1.0794
RightFoot  -3.62145 -0.37585 5.20024
RightToes  -5.8209e-011 0 -3.6325e-017
Spine  2.32693 0.0570022 2.30844
Spine1  -0.334925 0.136669 -0.356416
HEad  3.97394 10.2375 -0.303389
LeftShoulder1  1.51024 -0.309221 -33.229
LeftArm  31.8733 -3.68625 -38.0045
LeftForeArm  -6.02449 -17.9952 -9.83602
LeftHand  0.25736 -1.72249 -4.06361
RightShoulder  7.18709 8.71108 51.5236
RightArm  20.8795 0.327722 12.9748
RightForeArm  16.4676 -1.47512 18.6434
RightHand  0.593455 7.81703 4.82503
LeftUpLeg  2.69321 9.24608 4.84763
LeftLeg  -2.3057 15.3418 -3.2254
LeftFoot  -0.587734 0.702756 -7.42364
LeftToes  -4.03819e-010 -8.71445e-011 8.52097e-011
2
root  62.945 40.2258 36.1058 -178.527 -33.0398 179.598
RightUpLeg  4.04665 -5.04929 -2.66557
RightLeg  -1.31756 -14.0051 1.03454
RightFoot  -3.73743 -0.368857 5.16284
RightToes  -5.8209e-011 0 -3.6325e-017
Spine  2.28583 0.00781198 2.24991
Spine1  -0.465975 0.0600386 -0.21767
HEad  4.03947 10.4321 -0.418508
LeftShoulder1  1.51024 -0.323905 -33.2258
LeftArm  32.8145 -3.50649 -38.428
LeftForeArm  -6.65407 -18.646 -9.2176
LeftHand  0.27059 -1.87212 -4.17779
RightShoulder  6.94691 8.39053 51.1534
RightArm  19.8872 0.161371 12.5941
RightForeArm  16.4147 -1.77562 18.6024
RightHand  0.598387 7.78167 4.88299
LeftUpLeg  2.73417 9.34487 5.07319
LeftLeg  -2.35735 15.4285 -3.23014
LeftFoot  -0.4486 0.703742 -7.34754
LeftToes  -4.03819e-010 -8.71445e-011 8.52097e-011
3
root  63.0279 40.2223 36.0372 -178.402 -32.6816 179.583
RightUpLeg  3.83269 -4.87996 -2.46468
RightLeg  -1.18836 -13.7691 0.925237
RightFoot  -3.88023 -0.348481 4.9351
RightToes  -5.8209e-011 0 -3.6325e-017
Spine  2.15644 -0.0209425 2.17036
Spine1  -0.470381 -0.00405746 -0.0378297
HEad  4.10169 10.7094 -0.601769
LeftShoulder1  1.51024 -0.322204 -33.3891
LeftArm  33.0418 -3.28092 -38.6353
LeftForeArm  -6.63525 -18.6885 -9.17534
LeftHand  0.276104 -1.9583 -4.20808
RightShoulder  6.79604 8.23231 50.7253
RightArm  19.6285 0.178865 12.4382
RightForeArm  15.8872 -1.91277 18.6053
RightHand  0.612482 7.81344 4.99296
LeftUpLeg  2.71145 9.48796 5.26252
LeftLeg  -2.40042 15.6344 -3.31924
LeftFoot  -0.454005 0.732093 -7.64743
LeftToes  -4.03819e-010 -8.71445e-011 8.52097e-011
4
root  63.1091 40.2158 35.9724 -178.271 -32.2209 179.564
RightUpLeg  3.58468 -4.73975 -2.28961
RightLeg  -1.02275 -13.4086 0.841657
RightFoot  -4.0442 -0.330321 4.7445
RightToes  -5.8209e-011 0 -3.6325e-017
Spine  2.13637 -0.0752482 2.26645
Spine1  -0.506543 -0.0450774 -0.114711
HEad  4.11681 11.1839 -0.94825
LeftShoulder1  1.51024 -0.284425 -33.4638
LeftArm  32.6022 -2.89579 -38.7074
LeftForeArm  -5.87353 -18.222 -9.60904
LeftHand  0.29036 -2.05019 -4.37056
RightShoulder  6.77222 8.24847 50.4814
RightArm  19.231 0.398446 12.3815
RightForeArm  15.5098 -2.09182 18.5925
RightHand  0.599113 7.82736 4.87019
LeftUpLeg  2.71021 9.54543 5.38038
LeftLeg  -2.49009 16.0661 -3.33227
LeftFoot  -0.413711 0.753176 -7.84132
LeftToes  -4.03819e-010 -8.71445e-011 8.52097e-011
5
root  63.1892 40.2057 35.9021 -178.146 -31.6591 179.551
RightUpLeg  3.30919 -4.65359 -2.15445
RightLeg  -0.772481 -12.8904 0.796368
RightFoot  -4.35434 -0.313923 4.65287
RightToes  -5.8209e-011 0 -3.6325e-017
Spine  2.06394 -0.091732 2.44776
Spine1  -0.37659 -0.029277 -0.296515
HEad  4.04024 11.7577 -1.24674
LeftShoulder1  1.51024 -0.27505 -33.5396
LeftArm  30.5871 -2.64824 -38.6072
LeftForeArm  -4.02347 -16.8161 -10.8656
LeftHand  0.307943 -2.07212 -4.62975
RightShoulder  7.10455 8.85054 50.3762
RightArm  16.4513 0.021741 12.2749
RightForeArm  16.6817 -3.08633 18.3225
RightHand  0.607969 7.85822 4.93454
LeftUpLeg  2.78237 9.72164 5.584
LeftLeg  -2.62362 16.3974 -3.47313
LeftFoot  -0.412522 0.77741 -8.09294
LeftToes  -4.03819e-010 -8.71445e-011 8.52097e-011
6
root  63.2776 40.1867 35.8231 -178.006 -31.101 179.515
RightUpLeg  2.92538 -4.77691 -2.12716
RightLeg  -0.249578 -12.2148 0.878841
RightFoot  -4.87708 -0.287186 4.4943
RightToes  -5.8209e-011 0 -3.6325e-017
Spine  2.07717 -0.117684 2.53062
Spine1  -0.331843 -0.0509615 -0.329826
HEad  3.94888 12.501 -1.45015
LeftShoulder1  1.51024 -0.271951 -33.7451
LeftArm  28.583 -2.36691 -38.1999
LeftForeArm  -2.44691 -15.0031 -12.4157
LeftHand  0.31055 -1.89659 -4.7995
RightShoulder  6.97027 8.61191 50.3985
RightArm  17.4551 1.12276 12.4208
RightForeArm  15.0278 -2.78947 18.4711
RightHand  0.595215 7.86964 4.81863
LeftUpLeg  2.80207 9.94278 5.81429
LeftLeg  -2.61305 16.6588 -3.61527
LeftFoot  -0.476916 0.793478 -8.3053
LeftToes  -4.03819e-010 -8.71445e-011 8.52097e-011
7
root  63.3741 40.1585 35.7219 -177.92 -30.5395 179.472
RightUpLeg  2.45131 -4.89913 -2.09182
RightLeg  0.652343 -11.5271 0.905957
RightFoot  -5.58991 -0.261467 4.44466
RightToes  -5.8209e-011 0 -3.6325e-017
Spine  2.14138 -0.155588 2.59767
Spine1  -0.281986 -0.0835985 -0.371056
HEad  3.81882 13.3169 -1.85204
LeftShoulder1  1.51024 -0.271563 -33.8666
LeftArm  25.8059 -2.04027 -37.6341
LeftForeArm  -0.174722 -12.5748 -14.1787
LeftHand  0.315656 -1.70015 -4.9888
RightShoulder  7.15919 8.94563 50.3755
RightArm  15.2469 1.47868 12.7401
RightForeArm  16.4817 -2.61901 18.1802
RightHand  0.609812 7.96644 4.9052
LeftUpLeg  2.80703 10.2324 6.09746
LeftLeg  -2.33093 16.7865 -3.7132
LeftFoot  -0.690307 0.791802 -8.44054
LeftToes  -4.03819e-010 -8.71445e-011 8.52097e-011
